# xmcd
# Track frame offsets:
# 150
# 13550
# 26576
# 42361
# 61668
# 77245
# 87356
# 99144
# 130882
# 168184
#
# Disc length: 2376 seconds
# Revision: 0
# Processed by: cddbd v1.4PL0 Copyright (c) Steve Scherf et al.
# Submitted via: VisiTrax 2.9.5.181 - For more info visit www.synapsa.com
#
DISCID=6c09460a
DTITLE=Neil Young and Crazy Horse - American Stars 'N Bars
DYEAR=1900
DGENRE=Misc
TTITLE0=The Old Country Waltz
TTITLE1=Saddle Up the Palomino
TTITLE2=Hey Babe
TTITLE3=Hold Back the Tears
TTITLE4=Bite the Bullet
TTITLE5=Homegrown
TTITLE6=Star of Bethlehem
TTITLE7=Will to Love
TTITLE8=Like a Hurricane
TTITLE9=Homegrown
EXTD=
EXTT0=
EXTT1=
EXTT2=
EXTT3=
EXTT4=
EXTT5=
EXTT6=
EXTT7=
EXTT8=
EXTT9=
PLAYORDER=
